<svg width="27" height="32" viewBox="0 0 27 32" fill="none" xmlns="http://www.w3.org/2000/svg">
<path d="M13.5 25.25C12.0417 25.25 10.7231 24.849 9.54427 24.0469C8.36545 23.2448 7.49653 22.1875 6.9375 20.875H20.0625C19.5035 22.1875 18.6346 23.2448 17.4557 24.0469C16.2769 24.849 14.9583 25.25 13.5 25.25ZM9.85417 18.6875C9.34375 18.6875 8.91233 18.5113 8.5599 18.1589C8.20747 17.8065 8.03125 17.375 8.03125 16.8646C8.03125 16.3542 8.20747 15.9228 8.5599 15.5704C8.91233 15.2179 9.34375 15.0417 9.85417 15.0417C10.3646 15.0417 10.796 15.2179 11.1484 15.5704C11.5009 15.9228 11.6771 16.3542 11.6771 16.8646C11.6771 17.375 11.5009 17.8065 11.1484 18.1589C10.796 18.5113 10.3646 18.6875 9.85417 18.6875ZM17.1458 18.6875C16.6354 18.6875 16.204 18.5113 15.8516 18.1589C15.4991 17.8065 15.3229 17.375 15.3229 16.8646C15.3229 16.3542 15.4991 15.9228 15.8516 15.5704C16.204 15.2179 16.6354 15.0417 17.1458 15.0417C17.6563 15.0417 18.0877 15.2179 18.4401 15.5704C18.7925 15.9228 18.9688 16.3542 18.9688 16.8646C18.9688 17.375 18.7925 17.8065 18.4401 18.1589C18.0877 18.5113 17.6563 18.6875 17.1458 18.6875ZM13.5 31.0834C11.6771 31.0834 9.96962 30.737 8.3776 30.0443C6.78559 29.3516 5.40017 28.4158 4.22135 27.237C3.04254 26.0582 2.10677 24.6728 1.41406 23.0808C0.721354 21.4888 0.375 19.7813 0.375 17.9584C0.375 17.1806 0.435764 16.4271 0.557292 15.698C0.678819 14.9688 0.873264 14.2518 1.14063 13.5469L4.05729 14.0573C3.78993 14.665 3.59549 15.2908 3.47396 15.9349C3.35243 16.579 3.29167 17.2535 3.29167 17.9584C3.29167 20.8021 4.28212 23.2144 6.26302 25.1954C8.24392 27.1763 10.6563 28.1667 13.5 28.1667C16.3438 28.1667 18.7561 27.1763 20.737 25.1954C22.7179 23.2144 23.7083 20.8021 23.7083 17.9584C23.7083 17.5695 23.684 17.1867 23.6354 16.8099C23.5868 16.4332 23.526 16.0625 23.4531 15.698C21.4844 15.4792 19.6615 14.8959 17.9844 13.948C16.3073 13 14.8733 11.7726 13.6823 10.2657L16.2344 8.77087C17.0122 9.67018 17.8932 10.4358 18.8776 11.0677C19.862 11.6997 20.9375 12.1737 22.1042 12.4896C21.4965 11.5417 20.7491 10.7092 19.862 9.99223C18.9748 9.27521 17.9844 8.72226 16.8906 8.33337L19.9531 6.51046C21.9705 7.65282 23.5868 9.2266 24.8021 11.2318C26.0174 13.237 26.625 15.4792 26.625 17.9584C26.625 19.7813 26.2786 21.4888 25.5859 23.0808C24.8932 24.6728 23.9575 26.0582 22.7786 27.237C21.5998 28.4158 20.2144 29.3516 18.6224 30.0443C17.0304 30.737 15.3229 31.0834 13.5 31.0834ZM3.29167 11.5782L18.349 5.92712C17.5712 5.29518 16.7205 4.81514 15.7969 4.48702C14.8733 4.15889 13.901 3.99483 12.8802 3.99483C10.5712 3.99483 8.51129 4.69362 6.70052 6.09119C4.88976 7.48876 3.75347 9.31775 3.29167 11.5782ZM0.958333 15.5886C0.788194 15.1025 0.648438 14.6042 0.539063 14.0938C0.429688 13.5834 0.375 13.0608 0.375 12.5261C0.375 10.3143 0.994792 8.33337 2.23438 6.58337C3.47396 4.83337 5.04167 3.47226 6.9375 2.50004C6.88889 2.40282 6.85851 2.31167 6.84635 2.2266C6.8342 2.14153 6.82813 2.03824 6.82813 1.91671C6.82813 1.50351 6.96788 1.15716 7.2474 0.877645C7.52691 0.598131 7.87326 0.458374 8.28646 0.458374C8.62674 0.458374 8.9184 0.555596 9.16146 0.750041C9.40451 0.944485 9.57465 1.18754 9.67188 1.47921C10.2066 1.35768 10.7352 1.26046 11.2578 1.18754C11.7804 1.11462 12.3212 1.07817 12.8802 1.07817C14.5087 1.07817 16.0582 1.39414 17.5286 2.02608C18.9991 2.65803 20.2934 3.56948 21.4115 4.76046L25.8594 3.08337L26.8802 5.81775L0.958333 15.5886Z" fill="white"/>
</svg>
