<svg width="393" height="569" viewBox="0 0 393 569" fill="none" xmlns="http://www.w3.org/2000/svg">
<g opacity="0.77" filter="url(#filter0_i_74_497)">
<path d="M541.211 -35.6667C541.947 -38.5657 540.129 -41.5018 537.192 -42.0644C483.819 -52.2857 427.799 -44.9128 377.466 -20.9564C325.444 3.80453 282.47 44.8659 255.353 95.724C228.236 146.582 218.525 204.329 227.758 259.819C236.992 315.309 264.642 365.369 306.33 402.071C348.017 438.772 401.358 460.016 457.905 462.439C514.451 464.861 570.97 448.323 618.509 415.444C666.048 382.565 701.889 335.225 720.356 280.922C738.221 228.39 738.839 172.247 722.203 120.833C721.282 117.986 718.15 116.535 715.355 117.606V117.606C712.679 118.631 711.308 121.595 712.191 124.322C728.175 173.649 727.593 227.522 710.451 277.928C692.743 330 658.374 375.395 612.789 406.923C567.203 438.451 513.006 454.309 458.784 451.987C404.561 449.664 353.411 429.292 313.437 394.099C273.462 358.906 246.948 310.903 238.094 257.693C229.24 204.483 238.552 149.108 264.555 100.34C290.558 51.5716 331.765 12.1974 381.651 -11.5461C429.968 -34.5433 483.751 -41.6035 534.981 -31.7545C537.766 -31.2191 540.512 -32.9176 541.211 -35.6667V-35.6667Z" fill="#E6D582" fill-opacity="0.8"/>
</g>
<path d="M393 438.014H0.658508V438.211H393V438.014Z" fill="#EBEBEB"/>
<path d="M353.687 450.64H327.699V450.836H353.687V450.64Z" fill="#EBEBEB"/>
<path d="M260.561 452.774H253.742V452.97H260.561V452.774Z" fill="#EBEBEB"/>
<path d="M326.914 443.358H311.856V443.554H326.914V443.358Z" fill="#EBEBEB"/>
<path d="M75.7135 444.677H41.823V444.873H75.7135V444.677Z" fill="#EBEBEB"/>
<path d="M87.6721 444.677H82.705V444.873H87.6721V444.677Z" fill="#EBEBEB"/>
<path d="M177.33 447.988H103.821V448.184H177.33V447.988Z" fill="#EBEBEB"/>
<path d="M186.628 403.018H35.114C33.927 403.016 32.7894 402.543 31.9508 401.703C31.1123 400.862 30.6413 399.724 30.6413 398.537V185.551C30.6516 184.37 31.1272 183.242 31.9646 182.41C32.8021 181.579 33.9338 181.111 35.114 181.109H186.628C187.817 181.109 188.956 181.581 189.797 182.422C190.637 183.262 191.109 184.401 191.109 185.59V398.537C191.109 399.725 190.637 400.865 189.797 401.705C188.956 402.546 187.817 403.018 186.628 403.018ZM35.114 181.266C33.9791 181.268 32.8913 181.721 32.0896 182.524C31.2878 183.327 30.8375 184.416 30.8375 185.551V398.537C30.8375 399.672 31.2878 400.761 32.0896 401.564C32.8913 402.367 33.9791 402.819 35.114 402.821H186.628C187.764 402.819 188.853 402.367 189.656 401.564C190.459 400.761 190.911 399.673 190.913 398.537V185.551C190.911 184.415 190.459 183.326 189.656 182.523C188.853 181.72 187.764 181.268 186.628 181.266H35.114Z" fill="#EBEBEB"/>
<path d="M356.363 403.018H204.841C203.653 403.016 202.515 402.543 201.675 401.703C200.835 400.863 200.362 399.725 200.36 398.537V185.551C200.373 184.37 200.85 183.241 201.689 182.41C202.527 181.579 203.66 181.111 204.841 181.109H356.363C357.542 181.113 358.672 181.582 359.507 182.413C360.343 183.245 360.818 184.372 360.828 185.551V398.537C360.828 399.723 360.358 400.86 359.521 401.7C358.684 402.54 357.549 403.013 356.363 403.018ZM204.841 181.266C203.705 181.268 202.617 181.72 201.814 182.523C201.011 183.326 200.559 184.415 200.557 185.551V398.537C200.559 399.673 201.011 400.761 201.814 401.564C202.617 402.367 203.705 402.819 204.841 402.821H356.363C357.499 402.819 358.587 402.367 359.39 401.564C360.193 400.761 360.645 399.673 360.648 398.537V185.551C360.645 184.415 360.193 183.326 359.39 182.523C358.587 181.72 357.499 181.268 356.363 181.266H204.841Z" fill="#EBEBEB"/>
<path d="M331.865 237.967H206.308V320.979H331.865V237.967Z" fill="#E0E0E0"/>
<path d="M327.557 242.464H210.608V316.491H327.557V242.464Z" fill="#EBEBEB"/>
<path d="M240.426 247.478H218.243V278.253H240.426V247.478Z" fill="#F5F5F5"/>
<path d="M269.083 250.373H244.31V284.476H269.083V250.373Z" fill="#F5F5F5"/>
<path d="M296.154 247.478H275.643V276.966H296.154V247.478Z" fill="#F5F5F5"/>
<path d="M319.373 249.667H301.318V282.812H319.373V249.667Z" fill="#F5F5F5"/>
<path d="M319.373 289.199H279.912V313.407H319.373V289.199Z" fill="#F5F5F5"/>
<path d="M234.502 292.37H219.726V307.145H234.502V292.37Z" fill="#F5F5F5"/>
<path d="M254.912 295.642H239.955V310.598H254.912V295.642Z" fill="#F5F5F5"/>
<path d="M193.949 236.751H95.1579V437.457H193.949V236.751Z" fill="#E0E0E0"/>
<path d="M131.873 255.348H112.625V274.596H131.873V255.348Z" fill="#F0F0F0"/>
<path d="M154.174 255.348H134.926V274.596H154.174V255.348Z" fill="#F0F0F0"/>
<path d="M176.475 255.348H157.226V274.596H176.475V255.348Z" fill="#F0F0F0"/>
<path d="M131.873 277.735H112.625V296.983H131.873V277.735Z" fill="#F0F0F0"/>
<path d="M154.174 277.735H134.926V296.983H154.174V277.735Z" fill="#F0F0F0"/>
<path d="M176.475 277.735H157.226V296.983H176.475V277.735Z" fill="#F0F0F0"/>
<path d="M186.071 328.692C186.071 329.426 185.854 330.144 185.446 330.754C185.038 331.365 184.458 331.84 183.78 332.121C183.102 332.402 182.356 332.476 181.636 332.333C180.916 332.189 180.254 331.836 179.735 331.317C179.216 330.798 178.863 330.136 178.72 329.416C178.576 328.697 178.65 327.95 178.931 327.272C179.212 326.594 179.687 326.014 180.298 325.606C180.908 325.199 181.626 324.981 182.36 324.981C182.847 324.98 183.331 325.075 183.781 325.261C184.232 325.447 184.642 325.721 184.987 326.066C185.331 326.41 185.605 326.82 185.791 327.271C185.977 327.722 186.072 328.205 186.071 328.692Z" fill="#F0F0F0"/>
<path d="M91.0069 236.877H53.6953V254.461H91.0069V236.877Z" fill="#E0E0E0"/>
<path d="M91.007 259.397H60.8516V269.763H91.007V259.397Z" fill="#E0E0E0"/>
<path d="M91.0069 236.877H57.1793V254.461H91.0069V236.877Z" fill="#EBEBEB"/>
<path d="M91.007 259.397H63.6608V269.763H91.007V259.397Z" fill="#EBEBEB"/>
<path d="M149.543 227.377C155.605 224.866 158.483 217.916 155.972 211.855C153.462 205.793 146.512 202.914 140.45 205.425C134.389 207.936 131.51 214.885 134.021 220.947C136.532 227.009 143.481 229.888 149.543 227.377Z" fill="#F0F0F0"/>
<path d="M148.543 224.963C153.271 223.004 155.517 217.583 153.558 212.855C151.6 208.126 146.179 205.881 141.45 207.839C136.722 209.798 134.476 215.219 136.435 219.947C138.394 224.676 143.814 226.921 148.543 224.963Z" fill="#FAFAFA"/>
<path d="M142.027 219.276L141.533 218.664L144.609 216.208V210.15H145.393V216.585L142.027 219.276Z" fill="#F0F0F0"/>
<path d="M267.513 412.677C267.513 412.41 268.424 385.825 272.747 381.619C276.953 377.531 281.779 381.47 281.983 381.619L282.415 381.101C282.368 381.054 276.922 376.613 272.277 381.101C267.757 385.496 266.878 411.516 266.839 412.622L267.513 412.677Z" fill="#E0E0E0"/>
<path d="M267.145 417.903C267.145 417.581 270.103 385.99 258.56 372.745L258.05 373.192C269.397 386.21 266.501 417.519 266.47 417.832L267.145 417.903Z" fill="#E0E0E0"/>
<path d="M267.568 414.56L268.243 414.513C268.243 414.152 265.991 378.59 274.45 370.806L273.995 370.312C265.293 378.316 267.451 413.085 267.568 414.56Z" fill="#E0E0E0"/>
<path d="M266.47 414.537H267.145C267.145 413.556 266.87 390.51 260.326 386.759C259.704 386.357 258.994 386.11 258.257 386.039C257.52 385.968 256.776 386.075 256.089 386.351C252.165 387.983 250.172 395.029 250.086 395.328L250.737 395.508C250.737 395.438 252.699 388.446 256.347 386.979C256.94 386.745 257.579 386.656 258.213 386.721C258.846 386.785 259.455 387 259.988 387.347C266.195 390.91 266.47 414.301 266.47 414.537Z" fill="#E0E0E0"/>
<path d="M269.02 414.552L269.695 414.513C269.695 414.333 268.706 396.309 273.571 389.96C274.748 388.391 276.027 387.685 277.385 387.779C280.571 388.007 283.239 392.668 283.27 392.715L283.859 392.385C283.741 392.173 280.979 387.355 277.432 387.104C275.863 386.994 274.364 387.818 273.038 389.545C268.016 396.112 268.973 413.807 269.02 414.552Z" fill="#E0E0E0"/>
<path d="M267.953 417.009C268.086 415.259 271.131 374.102 265.772 366.844L265.222 367.252C270.44 374.314 267.31 416.53 267.278 416.954L267.953 417.009Z" fill="#E0E0E0"/>
<path d="M254.629 390.518C254.629 390.518 257.846 391.71 256.889 394.504C255.932 397.297 245.762 401.911 245.762 401.911C245.762 401.911 241.501 397.988 245.417 391.655C249.332 385.323 254.543 388.517 254.629 390.518Z" fill="#EBEBEB"/>
<path d="M268.612 385.19C268.612 385.19 265.191 385.048 264.995 387.999C264.799 390.949 272.418 399.118 272.418 399.118C272.418 399.118 277.848 397.156 276.686 389.788C275.525 382.42 269.467 383.377 268.612 385.19Z" fill="#EBEBEB"/>
<path d="M271.515 371.057C271.515 371.057 269.232 370.814 269.412 369.425C269.593 368.036 278.295 364.45 283.427 370.21C283.427 370.21 280.139 375.852 275.392 375.922C270.644 375.993 271.515 371.057 271.515 371.057Z" fill="#EBEBEB"/>
<path d="M267.262 367.683C267.262 367.683 269.326 368.68 269.907 367.401C270.487 366.122 265.003 358.487 257.587 360.692C257.587 360.692 257.391 367.213 261.377 369.786C265.364 372.36 267.262 367.683 267.262 367.683Z" fill="#EBEBEB"/>
<path d="M278.075 389.396C278.075 389.396 276.506 388.124 278.201 387.504C279.896 386.885 288.245 387.057 288.331 395.351C288.331 395.351 278.609 396.968 277.408 393.782C276.208 390.596 278.075 389.396 278.075 389.396Z" fill="#EBEBEB"/>
<path d="M258.246 370.853C258.246 370.853 259.816 369.582 258.121 368.955C256.426 368.327 248.077 368.515 247.991 376.801C247.991 376.801 257.713 378.418 258.913 375.271C260.114 372.125 258.246 370.853 258.246 370.853Z" fill="#EBEBEB"/>
<path d="M263.386 377.515C263.386 377.515 263.527 375.946 262.28 376.574C261.032 377.202 256.677 381.87 261.189 386.327C261.189 386.327 267.262 381.831 266.164 379.485C265.065 377.139 263.386 377.515 263.386 377.515Z" fill="#EBEBEB"/>
<path d="M279.48 379.712C279.48 379.712 278.538 378.48 279.919 378.331C281.3 378.182 287.484 379.83 286.04 385.998C286.04 385.998 278.507 385.433 278.193 382.859C277.879 380.285 279.48 379.712 279.48 379.712Z" fill="#EBEBEB"/>
<path d="M254.025 437.457H279.88L282.666 409.154H251.239L254.025 437.457Z" fill="#F0F0F0"/>
<path d="M249.858 412.277H284.047V406.031H249.858V412.277Z" fill="#E6E6E6"/>
<path d="M196.829 473.451C280.855 473.451 348.971 469.474 348.971 464.568C348.971 459.662 280.855 455.686 196.829 455.686C112.803 455.686 44.6871 459.662 44.6871 464.568C44.6871 469.474 112.803 473.451 196.829 473.451Z" fill="#F5F5F5"/>
<path d="M196.296 215.455H173.76C171.918 215.455 170.152 216.187 168.849 217.489C167.547 218.791 166.815 220.558 166.815 222.399V242.016C166.815 243.858 167.547 245.625 168.849 246.927C170.152 248.229 171.918 248.961 173.76 248.961H182.705L186.628 255.152L187.413 248.961H196.335C197.247 248.961 198.149 248.781 198.991 248.432C199.833 248.083 200.598 247.571 201.243 246.926C201.887 246.281 202.398 245.516 202.746 244.673C203.094 243.831 203.273 242.928 203.272 242.016V222.399C203.272 221.485 203.091 220.579 202.74 219.735C202.389 218.89 201.875 218.123 201.226 217.478C200.578 216.832 199.809 216.322 198.963 215.974C198.117 215.627 197.21 215.451 196.296 215.455Z" fill="#3485FF"/>
<path opacity="0.7" d="M196.296 215.455H173.76C171.918 215.455 170.152 216.187 168.849 217.489C167.547 218.791 166.815 220.558 166.815 222.399V242.016C166.815 243.858 167.547 245.625 168.849 246.927C170.152 248.229 171.918 248.961 173.76 248.961H182.705L186.628 255.152L187.413 248.961H196.335C197.247 248.961 198.149 248.781 198.991 248.432C199.833 248.083 200.598 247.571 201.243 246.926C201.887 246.281 202.398 245.516 202.746 244.673C203.094 243.831 203.273 242.928 203.272 242.016V222.399C203.272 221.485 203.091 220.579 202.74 219.735C202.389 218.89 201.875 218.123 201.226 217.478C200.578 216.832 199.809 216.322 198.963 215.974C198.117 215.627 197.21 215.451 196.296 215.455Z" fill="white"/>
<path d="M192.941 240.032C197.311 235.663 197.311 228.578 192.941 224.208C188.571 219.838 181.487 219.838 177.117 224.208C172.747 228.578 172.747 235.663 177.117 240.032C181.487 244.402 188.571 244.402 192.941 240.032Z" fill="#3485FF"/>
<path d="M183.851 237.12C183.701 237.121 183.554 237.09 183.418 237.027C183.282 236.965 183.162 236.873 183.066 236.759L178.672 231.588C178.495 231.38 178.408 231.11 178.43 230.838C178.452 230.566 178.581 230.313 178.789 230.136C178.998 229.959 179.267 229.873 179.54 229.895C179.812 229.917 180.064 230.046 180.241 230.254L183.843 234.507L189.799 227.492C189.977 227.295 190.226 227.174 190.492 227.157C190.758 227.139 191.02 227.225 191.224 227.397C191.427 227.569 191.556 227.813 191.583 228.079C191.61 228.344 191.533 228.609 191.368 228.818L184.627 236.759C184.532 236.872 184.412 236.962 184.278 237.024C184.144 237.087 183.998 237.119 183.851 237.12Z" fill="white"/>
<path d="M323.893 322.227L322.394 322.156C322.394 322.156 319.836 340.667 318.141 342.118C316.446 343.57 291.58 338.76 290.128 337.709C290.078 337.665 290.043 337.608 290.026 337.544C288.935 334.821 293.251 304.108 294.836 302.68C296.421 301.252 301.263 302.68 301.263 302.68C301.263 302.68 311.738 305.136 317.741 306.768C319.108 307.091 320.448 307.516 321.751 308.04C323.32 308.966 323.893 322.227 323.893 322.227Z" fill="#263238"/>
<path opacity="0.2" d="M318.322 320.83C318.322 320.83 315.756 339.341 314.069 340.792C312.751 341.922 297.481 339.278 290.026 337.544C288.935 334.821 293.251 304.108 294.836 302.68C296.421 301.252 301.263 302.68 301.263 302.68C301.263 302.68 311.738 305.136 317.741 306.768C319.24 308.016 318.322 320.83 318.322 320.83Z" fill="white"/>
<path d="M274.709 272.305L273.43 267.095L279.252 268.303C279.252 268.303 280.116 273.011 277.683 273.364L274.709 272.305Z" fill="#EEC1BB"/>
<path d="M275.031 262.034L279.684 264.772L279.252 268.303L273.43 267.095L275.031 262.034Z" fill="#EEC1BB"/>
<path d="M295.205 303.214C294.295 303.656 293.36 304.044 292.404 304.375C291.713 304.116 291.038 303.849 290.371 303.59C290.034 303.449 289.689 303.316 289.359 303.167C288.135 302.664 286.934 302.123 285.742 301.55L284.321 300.86C283.929 300.656 283.537 300.46 283.137 300.248C282.242 299.761 281.348 299.282 280.461 298.757C279.849 298.404 279.237 298.027 278.633 297.635C278.028 297.242 277.393 296.795 276.765 296.324L276.396 296.05C275.593 295.45 274.842 294.784 274.152 294.056C273.734 293.632 273.354 293.173 273.014 292.683C272.806 292.392 272.618 292.088 272.449 291.773C272.402 291.679 272.347 291.577 272.3 291.467C272.182 291.2 272.073 290.926 272.002 290.682C271.661 289.595 271.484 288.463 271.476 287.324C271.457 285.782 271.568 284.241 271.806 282.718C271.806 282.451 271.884 282.176 271.923 281.933C272.25 280.031 272.677 278.148 273.203 276.291C273.595 274.9 274.042 273.513 274.544 272.132L278.405 272.98C278.342 274.251 278.264 275.522 278.217 276.793C278.13 278.708 278.068 280.607 278.068 282.459V283.244C278.068 284.334 278.138 285.401 278.256 286.382C278.256 286.516 278.295 286.657 278.311 286.79C278.377 287.276 278.507 287.751 278.695 288.203C278.735 288.281 278.695 288.203 278.742 288.25C278.789 288.297 278.742 288.289 278.852 288.36C278.962 288.43 279.119 288.634 279.323 288.807C280.364 289.652 281.481 290.401 282.658 291.043H282.729C283.992 291.75 285.326 292.448 286.707 293.099L286.997 293.233C288.928 294.158 290.921 295.061 292.953 295.908C293.738 296.238 294.522 296.567 295.252 296.874C295.252 296.874 297.802 297.572 298.705 299.33C299.434 300.805 297.206 302.249 295.205 303.214Z" fill="#3485FF"/>
<path opacity="0.2" d="M295.205 303.214C294.295 303.656 293.36 304.044 292.404 304.375C291.713 304.116 291.038 303.849 290.371 303.59C290.034 303.449 289.689 303.316 289.359 303.167C288.135 302.665 286.934 302.123 285.742 301.55C290.042 299.518 293.408 301.574 295.205 303.214Z" fill="black"/>
<path d="M267.262 455.066L262.311 453.269L265.034 441.334L269.993 443.131L267.262 455.066Z" fill="#EEC1BB"/>
<path d="M306.34 461.649H301.082L299.584 449.471H304.841L306.34 461.649Z" fill="#EEC1BB"/>
<path d="M300.407 461.037H306.818C306.923 461.038 307.024 461.074 307.105 461.14C307.186 461.205 307.243 461.296 307.266 461.398L308.356 466.106C308.379 466.221 308.375 466.339 308.346 466.452C308.316 466.565 308.262 466.671 308.187 466.76C308.111 466.85 308.017 466.921 307.911 466.97C307.804 467.018 307.689 467.042 307.572 467.04C305.508 467.001 304.001 466.883 301.404 466.883C299.835 466.883 294.985 467.048 292.773 467.048C290.56 467.048 290.262 464.866 291.203 464.694C295.244 463.807 298.265 462.583 299.568 461.414C299.793 461.191 300.091 461.058 300.407 461.037Z" fill="#263238"/>
<path d="M262.131 452.264L267.757 453.465C267.859 453.489 267.95 453.545 268.017 453.626C268.083 453.707 268.122 453.807 268.126 453.912L268.204 458.699C268.206 458.815 268.182 458.93 268.134 459.035C268.086 459.141 268.015 459.235 267.927 459.31C267.838 459.385 267.734 459.44 267.622 459.47C267.51 459.499 267.392 459.504 267.278 459.483C265.254 459.012 262.342 458.259 259.792 457.718C256.81 457.074 254.959 456.47 251.459 455.725C249.34 455.27 249.191 453.01 250.117 453.002C254.331 453.002 256.881 453.786 260.805 452.421C261.222 452.242 261.683 452.187 262.131 452.264Z" fill="#263238"/>
<path opacity="0.2" d="M265.034 441.334L263.629 447.486L268.589 449.29L269.993 443.139L265.034 441.334Z" fill="black"/>
<path opacity="0.2" d="M304.849 449.471H299.584L300.36 455.748H305.618L304.849 449.471Z" fill="black"/>
<path d="M262.178 445.673L270.59 448.686C270.59 448.686 277.142 419.833 280.626 403.834C282.157 397.512 284.046 391.282 286.283 385.174C289.469 376.197 293.267 366.53 296.335 358.973C299.576 351.017 301.985 345.398 301.985 345.398L283.843 341.726C283.843 341.726 270.009 381.549 266.894 397.289C263.692 413.658 262.178 445.673 262.178 445.673Z" fill="#263238"/>
<g opacity="0.3">
<path d="M262.178 445.673L270.59 448.686C270.59 448.686 277.142 419.833 280.626 403.834C282.157 397.512 284.046 391.282 286.283 385.174C289.469 376.197 293.267 366.53 296.335 358.973C299.576 351.017 301.985 345.398 301.985 345.398L283.843 341.726C283.843 341.726 270.009 381.549 266.894 397.289C263.692 413.658 262.178 445.673 262.178 445.673Z" fill="white"/>
</g>
<path opacity="0.2" d="M286.283 385.174C289.469 376.197 293.267 366.53 296.335 358.973L294.93 354.634C289.775 359.436 286.534 375.985 286.283 385.174Z" fill="black"/>
<path d="M293.659 343.711C293.659 343.711 290.426 389.113 290.23 404.548C290.01 421.442 297.912 454.532 297.912 454.532H307.548C307.548 454.532 303.695 424.675 304.982 407.937C306.41 389.215 311.464 347.313 311.464 347.313L293.659 343.711Z" fill="#263238"/>
<g opacity="0.3">
<path d="M293.659 343.711C293.659 343.711 290.426 389.113 290.23 404.548C290.01 421.442 297.912 454.532 297.912 454.532H307.548C307.548 454.532 303.695 424.675 304.982 407.937C306.41 389.215 311.464 347.313 311.464 347.313L293.659 343.711Z" fill="white"/>
</g>
<path d="M296.767 454.744H308.105L308.074 451.354L296.233 450.671L296.767 454.744Z" fill="#263238"/>
<path d="M261.056 445.563L271.1 449.047L272.198 445.806L261.213 441.805L261.056 445.563Z" fill="#263238"/>
<path d="M298.658 461.955C298.3 461.985 297.942 461.89 297.645 461.688C297.552 461.607 297.479 461.505 297.433 461.391C297.387 461.276 297.368 461.152 297.379 461.029C297.377 460.956 297.396 460.884 297.433 460.822C297.471 460.759 297.525 460.709 297.59 460.676C298.163 460.378 299.874 461.461 300.07 461.539C300.09 461.553 300.105 461.572 300.115 461.594C300.125 461.617 300.128 461.641 300.125 461.665C300.122 461.69 300.111 461.713 300.095 461.731C300.078 461.749 300.055 461.762 300.031 461.767C299.581 461.88 299.121 461.943 298.658 461.955ZM297.873 460.872C297.821 460.859 297.767 460.859 297.716 460.872C297.677 460.872 297.638 460.919 297.638 461.013C297.627 461.098 297.637 461.183 297.667 461.263C297.697 461.342 297.746 461.413 297.81 461.469C298.398 461.738 299.066 461.771 299.678 461.563C299.124 461.217 298.509 460.982 297.865 460.872H297.873Z" fill="#3485FF"/>
<path d="M300.007 461.775H299.945C299.395 461.476 298.336 460.323 298.438 459.742C298.456 459.651 298.505 459.568 298.576 459.508C298.647 459.448 298.737 459.415 298.83 459.413C298.925 459.401 299.022 459.409 299.113 459.436C299.205 459.463 299.29 459.508 299.364 459.57C299.976 460.072 300.149 461.586 300.149 461.657C300.151 461.679 300.148 461.701 300.138 461.72C300.128 461.74 300.113 461.756 300.094 461.767C300.081 461.776 300.067 461.781 300.051 461.782C300.036 461.784 300.021 461.781 300.007 461.775ZM298.924 459.672H298.838C298.681 459.672 298.665 459.766 298.658 459.797C298.595 460.15 299.278 461.021 299.819 461.429C299.776 460.829 299.555 460.255 299.183 459.782C299.111 459.718 299.02 459.679 298.924 459.672Z" fill="#3485FF"/>
<path d="M261.472 452.861C260.608 452.861 259.117 452.735 258.631 452.115C258.561 452.025 258.514 451.92 258.495 451.807C258.476 451.695 258.485 451.58 258.521 451.472C258.537 451.406 258.57 451.346 258.617 451.298C258.664 451.25 258.723 451.215 258.788 451.197C259.486 450.978 261.346 452.468 261.55 452.641C261.572 452.657 261.587 452.679 261.594 452.705C261.601 452.73 261.6 452.758 261.589 452.782C261.582 452.807 261.566 452.829 261.545 452.843C261.523 452.857 261.497 452.864 261.472 452.861ZM258.898 451.425H258.819C258.793 451.431 258.77 451.444 258.751 451.464C258.733 451.484 258.721 451.508 258.717 451.535C258.691 451.605 258.684 451.68 258.695 451.754C258.706 451.829 258.735 451.899 258.78 451.958C259.039 452.311 259.879 452.539 261.056 452.594C260.389 452.037 259.314 451.37 258.898 451.425Z" fill="#3485FF"/>
<path d="M261.472 452.861C261.458 452.868 261.444 452.872 261.428 452.872C261.413 452.872 261.398 452.868 261.385 452.861C260.82 452.453 259.816 451.072 260.028 450.507C260.083 450.373 260.216 450.224 260.553 450.263C260.678 450.277 260.798 450.315 260.907 450.375C261.016 450.436 261.112 450.518 261.189 450.616C261.541 451.275 261.678 452.026 261.581 452.766C261.581 452.789 261.574 452.81 261.562 452.828C261.549 452.847 261.531 452.861 261.511 452.868L261.472 452.861ZM260.396 450.507C260.369 450.508 260.342 450.516 260.318 450.532C260.295 450.547 260.276 450.568 260.263 450.593C260.138 450.93 260.797 451.99 261.354 452.5C261.415 451.901 261.289 451.298 260.993 450.773C260.939 450.699 260.87 450.638 260.79 450.593C260.71 450.549 260.621 450.522 260.53 450.514L260.396 450.507Z" fill="#3485FF"/>
<path d="M321.704 302.774C320.898 304.726 320.158 306.69 319.483 308.667C319.303 309.193 319.13 309.711 318.957 310.237C318.424 311.877 317.929 313.517 317.474 315.141C317.317 315.714 317.16 316.287 317.011 316.852C316.768 317.746 316.541 318.633 316.321 319.512C316.203 320.006 316.085 320.493 315.976 320.971C315.701 322.133 315.45 323.27 315.191 324.392C314.932 325.515 314.751 326.527 314.555 327.531C314.359 328.536 314.132 329.72 313.951 330.772C313.771 331.823 313.598 332.836 313.441 333.824C313.284 334.813 313.104 335.974 312.962 336.963C312.782 338.226 312.617 339.411 312.476 340.494C312.021 343.751 311.691 346.144 311.448 347.282L283.866 341.695C283.866 339.529 283.866 337.45 283.96 335.417C284.015 334.075 284.078 332.765 284.172 331.494C284.219 330.654 284.282 329.83 284.353 329.022C284.463 327.79 284.58 326.597 284.714 325.436C284.863 324.134 285.028 322.878 285.216 321.67C285.546 319.433 285.93 317.362 286.338 315.439C286.84 313.085 287.374 311.006 287.907 309.123C288.59 306.768 289.288 304.744 289.932 303.088C290.693 301.018 291.633 299.017 292.741 297.109C294.992 296.986 297.248 297.001 299.497 297.156C299.968 297.156 300.455 297.242 300.941 297.289C304.906 297.848 308.836 298.634 312.711 299.644C313.441 299.832 314.186 300.044 314.908 300.256C318.541 301.433 321.704 302.774 321.704 302.774Z" fill="#3485FF"/>
<path d="M314.077 286.257C312.609 289.882 310.538 296.646 312.696 299.698C311.296 300.679 309.702 301.345 308.021 301.651C306.34 301.957 304.613 301.896 302.958 301.472C299.725 300.742 299.999 298.435 300.965 297.329C305.367 297.172 305.861 294.025 305.673 290.949L314.077 286.257Z" fill="#EEC1BB"/>
<path opacity="0.2" d="M310.655 288.203L305.696 290.965C305.742 291.684 305.729 292.406 305.657 293.123C307.305 293.217 309.855 291.899 310.365 290.251C310.587 289.592 310.685 288.897 310.655 288.203Z" fill="black"/>
<path d="M304.503 273.16C303.068 274.73 301.632 278.653 304.762 278.614C307.893 278.575 306.967 270.469 304.503 273.16Z" fill="#263238"/>
<path d="M316.564 281.8C314.649 286.649 313.771 289.584 310.451 291.287C305.453 293.845 300.094 289.521 300.525 284.224C300.91 279.414 303.986 272.297 309.463 271.96C310.671 271.888 311.878 272.123 312.971 272.642C314.064 273.161 315.009 273.947 315.717 274.929C316.425 275.91 316.874 277.054 317.022 278.256C317.17 279.457 317.013 280.676 316.564 281.8Z" fill="#EEC1BB"/>
<path d="M317.317 272.47H313.747L315.458 275.695C316.038 275.781 314.885 277.751 315.387 277.759C315.387 277.759 313.033 282.043 314.5 284.938C319.773 284.515 323.501 280.372 321.107 277.382C322.638 274.761 319.962 272.815 317.317 272.47Z" fill="#263238"/>
<path d="M317.129 286.547C316.751 287.073 316.272 287.518 315.719 287.856C315.167 288.195 314.552 288.419 313.912 288.517C312.201 288.768 311.558 287.175 312.193 285.66C312.782 284.295 314.375 282.522 316.015 282.969C316.372 283.072 316.697 283.262 316.963 283.522C317.228 283.782 317.425 284.103 317.536 284.458C317.646 284.813 317.667 285.189 317.596 285.554C317.525 285.918 317.364 286.26 317.129 286.547Z" fill="#EEC1BB"/>
<path d="M305.453 279.815C304.57 280.841 303.548 281.739 302.416 282.483C302.632 282.761 302.905 282.991 303.216 283.157C303.527 283.324 303.869 283.423 304.221 283.448L305.453 279.815Z" fill="#D4827D"/>
<path d="M310.506 279.665C310.461 279.657 310.419 279.636 310.385 279.606C310.35 279.575 310.325 279.536 310.31 279.493C310.217 279.194 310.055 278.921 309.837 278.696C309.619 278.471 309.351 278.301 309.055 278.198C309.023 278.19 308.993 278.175 308.966 278.156C308.94 278.136 308.918 278.111 308.901 278.082C308.884 278.054 308.873 278.023 308.869 277.99C308.864 277.957 308.866 277.924 308.874 277.892C308.882 277.86 308.897 277.83 308.917 277.804C308.937 277.777 308.961 277.755 308.99 277.738C309.018 277.722 309.05 277.711 309.082 277.706C309.115 277.701 309.148 277.703 309.18 277.712C309.551 277.84 309.886 278.055 310.159 278.337C310.431 278.619 310.634 278.961 310.75 279.336C310.772 279.398 310.769 279.467 310.742 279.528C310.714 279.588 310.663 279.635 310.6 279.658C310.57 279.664 310.538 279.667 310.506 279.665Z" fill="#263238"/>
<path d="M302.628 276.903C302.579 276.896 302.534 276.871 302.503 276.833C302.456 276.786 302.43 276.722 302.43 276.656C302.43 276.59 302.456 276.527 302.503 276.48C302.768 276.188 303.1 275.964 303.47 275.827C303.84 275.691 304.238 275.645 304.629 275.695C304.695 275.708 304.754 275.747 304.792 275.803C304.83 275.858 304.845 275.927 304.833 275.993C304.82 276.057 304.782 276.114 304.728 276.15C304.674 276.187 304.607 276.201 304.543 276.189C304.232 276.146 303.916 276.18 303.622 276.288C303.327 276.396 303.064 276.575 302.856 276.809C302.83 276.844 302.795 276.872 302.755 276.888C302.715 276.905 302.671 276.91 302.628 276.903Z" fill="#263238"/>
<path d="M303.648 284.405C304.015 285.234 304.322 286.089 304.566 286.963L305.037 286.908C307.187 286.641 308.097 285.81 308.458 284.97C308.626 284.555 308.691 284.105 308.647 283.659C308.63 283.407 308.577 283.159 308.49 282.922C307.438 283.707 305.453 284.138 304.378 284.311C303.931 284.381 303.648 284.405 303.648 284.405Z" fill="#263238"/>
<path d="M304.378 284.311L304.668 285.056C306.693 284.805 308.082 284.35 308.647 283.659C308.63 283.407 308.577 283.159 308.49 282.922C307.47 283.738 305.453 284.138 304.378 284.311Z" fill="white"/>
<path d="M305.037 286.908C307.187 286.641 308.097 285.809 308.458 284.97C307.633 285.089 306.836 285.355 306.104 285.755C305.639 286.02 305.266 286.423 305.037 286.908Z" fill="#DE5753"/>
<path d="M320.142 273.529C320.142 273.529 317.066 268.774 309.832 268.476C302.597 268.178 302.377 272.996 304.825 274.651L305.037 273.945C305.623 274.654 306.361 275.222 307.195 275.609V274.651C308.217 275.595 309.392 276.356 310.671 276.903V275.695C310.671 275.695 312.554 277.264 316.47 277.704C320.386 278.143 321.931 276.55 320.142 273.529Z" fill="#263238"/>
<path d="M308.655 280.937C308.615 280.937 308.576 280.925 308.544 280.903C308.512 280.88 308.487 280.848 308.474 280.811C308.447 280.7 308.395 280.595 308.324 280.506C308.252 280.416 308.161 280.344 308.058 280.293C307.927 280.239 307.781 280.239 307.65 280.293C307.605 280.317 307.552 280.323 307.503 280.31C307.454 280.297 307.411 280.266 307.383 280.223C307.366 280.178 307.365 280.129 307.381 280.085C307.397 280.04 307.428 280.002 307.47 279.979C307.579 279.915 307.701 279.876 307.827 279.863C307.953 279.851 308.08 279.867 308.199 279.909C308.362 279.98 308.507 280.088 308.621 280.224C308.735 280.36 308.817 280.521 308.859 280.693C308.874 280.742 308.871 280.795 308.849 280.842C308.827 280.889 308.788 280.925 308.741 280.944L308.655 280.937Z" fill="#263238"/>
<path d="M304.197 279.767C304.158 279.767 304.12 279.755 304.088 279.732C304.056 279.71 304.031 279.678 304.017 279.642C303.99 279.53 303.938 279.426 303.867 279.337C303.795 279.247 303.704 279.175 303.601 279.124C303.468 279.085 303.324 279.099 303.201 279.163C303.155 279.189 303.101 279.197 303.049 279.183C302.998 279.17 302.954 279.138 302.926 279.093C302.904 279.047 302.899 278.995 302.912 278.946C302.925 278.897 302.955 278.855 302.997 278.826C303.107 278.764 303.229 278.725 303.354 278.713C303.48 278.701 303.607 278.715 303.727 278.755C303.89 278.826 304.034 278.934 304.148 279.07C304.263 279.206 304.344 279.367 304.386 279.54C304.401 279.589 304.398 279.642 304.376 279.689C304.354 279.735 304.316 279.772 304.268 279.791L304.197 279.767Z" fill="#263238"/>
<path d="M317.082 300.703C317.082 300.703 311.903 316.624 315.779 331.305L314.783 332.231C314.783 332.231 308.356 316.616 313.763 300.02L317.082 300.703Z" fill="#263238"/>
<path d="M298.838 297.093C298.838 297.093 286.832 312.434 284.588 326.699L284.808 323.388C284.808 323.388 284.73 310.66 295.244 296.928L298.838 297.093Z" fill="#263238"/>
<path d="M315.418 329.814L317.451 333.322L316.101 337.897C315.134 335.523 314.472 333.037 314.132 330.497L315.418 329.814Z" fill="#263238"/>
<path d="M323.461 343.594L310.412 338.101L309.573 349.086C309.573 349.086 324.278 349.361 324.482 349.447C324.686 349.534 323.461 343.594 323.461 343.594Z" fill="#263238"/>
<path opacity="0.4" d="M323.461 343.594L310.412 338.101L309.573 349.086C309.573 349.086 324.278 349.361 324.482 349.447C324.686 349.534 323.461 343.594 323.461 343.594Z" fill="white"/>
<path d="M310.396 348.443L311.26 339.019L313.472 335.48L322.198 343.06L320.684 348.262L310.396 348.443Z" fill="#263238"/>
<path opacity="0.7" d="M310.396 348.443L311.26 339.019L313.472 335.48L322.198 343.06L320.684 348.262L310.396 348.443Z" fill="white"/>
<path d="M312.68 334.452L312.523 346.568L309.573 349.133L326.906 356.368L329.904 353.269L330.029 342.338L312.68 334.452Z" fill="#263238"/>
<path opacity="0.5" d="M312.68 334.452L312.523 346.568L309.573 349.133L326.906 356.368L329.904 353.269L330.029 342.338L312.68 334.452Z" fill="white"/>
<path d="M323.579 346.466L323.108 351.801L317.992 348.772C317.992 348.772 318.706 344.064 321.131 344.504L323.579 346.466Z" fill="#EEC1BB"/>
<path d="M319.954 356.078L316.439 351.974L317.992 348.772L323.108 351.801L319.954 356.078Z" fill="#EEC1BB"/>
<path opacity="0.2" d="M318.957 310.237C318.424 311.877 317.929 313.517 317.474 315.141C317.317 315.714 317.16 316.287 317.011 316.852C315.913 314.576 316.439 310.739 316.439 310.739L318.957 310.237Z" fill="black"/>
<path d="M324.968 305.16C326.538 306.738 327.972 308.447 329.252 310.268C331.178 312.959 332.894 315.795 334.384 318.751C335.411 320.733 336.261 322.802 336.927 324.934C337.182 325.741 337.335 326.576 337.382 327.421C337.437 329.195 335.812 332.216 333.654 335.37C332.438 337.167 331.057 339.011 329.731 340.698C326.82 344.394 324.238 347.329 324.238 347.329L320.315 344.582C320.315 344.582 322.253 341.051 324.238 337.238C325.298 335.221 326.365 333.118 327.149 331.423C327.703 330.395 328.125 329.301 328.405 328.167C328.416 327.82 328.39 327.472 328.326 327.131C328.028 325.475 323.171 315.165 316.501 310.739L318.855 302.107C320.495 301.644 322.692 302.923 324.968 305.16Z" fill="#3485FF"/>
<path d="M245.299 325.075C248.493 327.162 242.239 336.061 234.996 334.813C227.754 333.565 228.617 327.79 229.927 325.656C231.238 323.521 237.907 320.241 245.299 325.075Z" fill="#3485FF"/>
<path opacity="0.3" d="M245.299 325.075C248.493 327.162 242.239 336.061 234.996 334.813C227.754 333.565 228.617 327.79 229.927 325.656C231.238 323.521 237.907 320.241 245.299 325.075Z" fill="black"/>
<path d="M235.726 322.988C235.726 322.988 244.31 329.312 245.244 334.813C246.178 340.314 235.467 344.629 227.707 343.711C219.946 342.793 213.111 329.093 213.111 329.093C213.111 329.093 228.217 329.414 235.726 322.988Z" fill="#3485FF"/>
<path opacity="0.2" d="M235.726 322.988C235.726 322.988 244.31 329.312 245.244 334.813C246.178 340.314 235.467 344.629 227.707 343.711C219.946 342.793 213.111 329.093 213.111 329.093C213.111 329.093 228.217 329.414 235.726 322.988Z" fill="black"/>
<path d="M234.494 326.644C234.494 326.644 233.992 319.002 245.315 325.075C245.315 325.075 240.12 321.544 235.24 322.203C230.359 322.862 225.274 328.065 219.907 327.555C214.54 327.045 217.349 333.408 217.349 333.408C217.349 333.408 229.307 332.49 234.494 326.644Z" fill="#3485FF"/>
<path d="M211.526 290.353C214.061 284.715 216.201 278.907 217.929 272.972C218.439 270.854 218.149 268.617 217.929 266.35C217.592 263.501 217.074 260.511 216.541 257.6L220.197 256.274C222.523 260.564 224.115 265.214 224.905 270.03C225.17 271.893 225.093 273.789 224.678 275.624C223.444 281.893 221.416 287.979 218.643 293.735L211.581 290.353H211.526Z" fill="#FFB573"/>
<path d="M208.6 290.823C212.091 288.383 215.05 281.894 215.05 281.894L222.229 286.296C222.229 286.296 218.91 293.774 218.188 298.623C217.78 301.566 208.6 290.823 208.6 290.823Z" fill="#263238"/>
<path opacity="0.2" d="M214.642 297.132C216.47 298.78 218.047 299.8 218.228 298.615C218.368 297.702 218.562 296.798 218.808 295.908C217.753 294.754 216.499 293.8 215.105 293.091C214.74 294.406 214.584 295.769 214.642 297.132Z" fill="black"/>
<path d="M205.147 439.199L210.31 439.49L213.08 427.657L207.925 427.366L205.147 439.199Z" fill="#FFB573"/>
<path d="M210.373 438.313L206.104 434.389C206.029 434.325 205.933 434.289 205.834 434.289C205.734 434.289 205.638 434.325 205.563 434.389L201.961 437.324C201.874 437.401 201.804 437.496 201.757 437.602C201.709 437.708 201.684 437.824 201.684 437.94C201.684 438.056 201.709 438.171 201.757 438.278C201.804 438.384 201.874 438.479 201.961 438.556C203.468 439.906 204.268 440.478 206.143 442.213C207.305 443.272 210.506 446.45 212.107 447.925C213.708 449.4 215.246 447.925 214.704 447.14C212.35 443.75 211.032 440.933 210.781 439.168C210.752 438.843 210.607 438.539 210.373 438.313Z" fill="#263238"/>
<g opacity="0.2">
<path d="M213.08 427.657L211.652 433.761L206.489 433.471L207.917 427.374L213.08 427.657Z" fill="black"/>
</g>
<path d="M213.308 291.318C213.308 291.318 220.55 300.35 220.911 322.658C212.829 324.683 204.433 325.201 200.51 326.189C198.775 317.817 197.559 312.685 189.336 296.67C192.011 295.372 194.778 294.273 197.614 293.382C200.635 292.378 203.724 291.591 206.858 291.028C209.001 290.618 211.21 290.718 213.308 291.318Z" fill="#FFB573"/>
<path d="M195.943 282.749C197.269 285.574 199.223 290.879 197.638 293.382C197.638 293.382 199.207 296.199 204.7 294.81C210.781 293.288 206.85 291.067 206.85 291.067C203.334 291.106 202.801 288.627 202.801 286.17L195.943 282.749Z" fill="#FFB573"/>
<path d="M197.614 293.389C200.634 292.382 203.723 291.596 206.858 291.035L207.477 290.949C208.568 292.158 209.29 294.26 208.317 297.862C208.317 297.862 199.387 296.63 196.413 293.743C196.829 293.641 197.237 293.507 197.614 293.389Z" fill="#FFB573"/>
<path opacity="0.2" d="M198.752 284.146L202.832 286.163C202.818 286.738 202.86 287.314 202.958 287.881C201.639 288.014 199.552 287.096 199.081 285.762C198.876 285.248 198.765 284.7 198.752 284.146Z" fill="black"/>
<path d="M220.95 323.2C220.95 323.2 224.474 363.062 223.917 378.818C223.336 395.202 212.625 432.451 212.625 432.451L205.633 432.349C205.633 432.349 211.432 395.995 211.04 379.893C210.608 362.332 205.547 322.988 205.547 322.988L220.95 323.2Z" fill="#3485FF"/>
<path opacity="0.2" d="M220.95 323.2C220.95 323.2 224.474 363.062 223.917 378.818C223.336 395.202 212.625 432.451 212.625 432.451L205.633 432.349C205.633 432.349 211.432 395.995 211.04 379.893C210.608 362.332 205.547 322.988 205.547 322.988L220.95 323.2Z" fill="white"/>
<path d="M205.021 432.592L213.221 432.71L213.865 430.097L204.684 429.658L205.021 432.592Z" fill="#3485FF"/>
<path opacity="0.2" d="M211.738 332.977C216.745 343.421 212.366 362.277 210.444 369.292C209.659 358.707 208.262 345.751 207.164 336.257C208.042 330.905 209.447 328.159 211.738 332.977Z" fill="black"/>
<path d="M160.812 392.495L162.492 397.384L174.427 395.296L172.755 390.408L160.812 392.495Z" fill="#FFB573"/>
<path d="M163.873 397.556L163.543 391.757C163.537 391.653 163.497 391.554 163.429 391.474C163.361 391.395 163.269 391.34 163.166 391.318L158.505 390.321C158.393 390.295 158.276 390.297 158.165 390.325C158.053 390.354 157.95 390.409 157.865 390.486C157.779 390.563 157.714 390.66 157.674 390.768C157.633 390.876 157.62 390.992 157.634 391.106C157.776 393.131 157.956 394.112 158.097 396.662C158.184 398.231 158.27 402.727 158.396 404.893C158.521 407.059 160.679 407.326 160.828 406.462C161.471 402.484 162.523 399.722 163.598 398.443C163.701 398.321 163.778 398.18 163.825 398.027C163.872 397.875 163.888 397.715 163.873 397.556Z" fill="#263238"/>
<g opacity="0.2">
<path d="M174.427 395.296L168.275 396.371L166.595 391.483L172.747 390.408L174.427 395.296Z" fill="black"/>
</g>
<path d="M215.144 323.137C215.144 323.137 208.866 364.144 204.739 379.548C200.478 395.563 170.315 396.52 170.315 396.52L167.333 390.196C167.333 390.196 184.996 385.762 192.741 375.287C196.264 358.024 199.803 322.925 199.803 322.925L215.144 323.137Z" fill="#3485FF"/>
<path opacity="0.2" d="M215.144 323.137C215.144 323.137 208.866 364.144 204.739 379.548C200.478 395.563 170.315 396.52 170.315 396.52L167.333 390.196C167.333 390.196 184.996 385.762 192.741 375.287C196.264 358.024 199.803 322.925 199.803 322.925L215.144 323.137Z" fill="white"/>
<path d="M166.988 389.584L169.569 397.368L172.355 397.439L169.773 388.658L166.988 389.584Z" fill="#3485FF"/>
<path d="M163.088 399.424C163.075 399.88 163.21 400.329 163.472 400.703C163.549 400.79 163.643 400.858 163.749 400.905C163.855 400.951 163.969 400.973 164.085 400.97C164.15 400.971 164.215 400.953 164.272 400.92C164.328 400.887 164.375 400.839 164.406 400.781C164.72 400.177 163.543 398.043 163.41 397.8C163.396 397.776 163.377 397.757 163.353 397.745C163.33 397.732 163.303 397.727 163.276 397.729C163.253 397.73 163.231 397.74 163.214 397.756C163.197 397.771 163.186 397.792 163.182 397.815C163.1 398.347 163.068 398.886 163.088 399.424ZM164.21 400.428C164.233 400.5 164.233 400.576 164.21 400.648C164.2 400.672 164.182 400.692 164.159 400.705C164.137 400.717 164.11 400.722 164.085 400.719C164.01 400.725 163.934 400.714 163.864 400.685C163.795 400.656 163.733 400.611 163.684 400.554C163.378 400.216 163.284 399.369 163.41 398.2C163.801 398.893 164.074 399.646 164.218 400.428H164.21Z" fill="#3485FF"/>
<path d="M163.19 397.839C163.186 397.857 163.186 397.875 163.19 397.894C163.504 398.529 164.697 399.824 165.277 399.777C165.418 399.777 165.583 399.675 165.599 399.337C165.605 399.211 165.585 399.086 165.542 398.967C165.499 398.849 165.433 398.74 165.348 398.647C164.771 398.149 164.062 397.83 163.308 397.729C163.288 397.724 163.267 397.726 163.247 397.733C163.228 397.74 163.211 397.752 163.198 397.768C163.191 397.778 163.187 397.79 163.185 397.802C163.184 397.815 163.186 397.827 163.19 397.839ZM165.364 399.251V399.322C165.364 399.541 165.262 399.549 165.238 399.549C164.885 399.549 163.959 398.694 163.535 398.043C164.146 398.142 164.715 398.415 165.175 398.827C165.282 398.944 165.348 399.093 165.364 399.251Z" fill="#3485FF"/>
<path d="M211.189 440.298C211.489 440.623 211.89 440.839 212.327 440.91C212.438 440.912 212.547 440.886 212.646 440.835C212.744 440.785 212.829 440.711 212.892 440.62C212.937 440.569 212.967 440.508 212.98 440.441C212.992 440.375 212.986 440.306 212.962 440.243C212.735 439.56 210.506 438.932 210.247 438.87C210.223 438.862 210.197 438.862 210.173 438.871C210.149 438.879 210.128 438.896 210.114 438.917C210.101 438.938 210.094 438.962 210.094 438.987C210.094 439.012 210.101 439.037 210.114 439.058C210.434 439.503 210.794 439.918 211.189 440.298ZM212.594 440.133C212.656 440.181 212.702 440.247 212.727 440.321C212.742 440.343 212.75 440.369 212.75 440.396C212.75 440.422 212.742 440.448 212.727 440.47C212.686 440.53 212.631 440.579 212.566 440.613C212.502 440.647 212.431 440.666 212.358 440.667C211.934 440.667 211.275 440.117 210.561 439.207C211.286 439.399 211.973 439.712 212.594 440.133Z" fill="#3485FF"/>
<path d="M210.169 439.074C210.175 439.077 210.182 439.079 210.189 439.079C210.195 439.079 210.202 439.077 210.208 439.074C210.852 439.294 212.507 439.294 212.829 438.799C212.908 438.682 212.955 438.493 212.727 438.234C212.646 438.142 212.547 438.068 212.437 438.015C212.326 437.962 212.206 437.933 212.084 437.928C211.362 438.033 210.692 438.362 210.169 438.87C210.16 438.888 210.155 438.908 210.155 438.929C210.155 438.949 210.16 438.969 210.169 438.988C210.163 439.001 210.16 439.016 210.16 439.031C210.16 439.046 210.163 439.06 210.169 439.074ZM212.523 438.368C212.543 438.384 212.562 438.402 212.578 438.423C212.727 438.587 212.672 438.666 212.656 438.689C212.46 438.988 211.26 439.074 210.538 438.925C210.972 438.525 211.521 438.273 212.107 438.203C212.239 438.219 212.363 438.277 212.46 438.368H212.523Z" fill="#3485FF"/>
<path d="M199.56 323.608L199.372 325.428C199.325 325.577 199.529 325.703 199.772 325.687L221.311 324.118C221.5 324.118 221.641 324 221.633 323.89L221.476 322.093C221.476 321.968 221.28 321.874 221.076 321.889L199.89 323.459C199.826 323.45 199.761 323.459 199.703 323.485C199.645 323.512 199.595 323.554 199.56 323.608Z" fill="#3485FF"/>
<path opacity="0.7" d="M199.56 323.608L199.372 325.428C199.325 325.577 199.529 325.703 199.772 325.687L221.311 324.118C221.5 324.118 221.641 324 221.633 323.89L221.476 322.093C221.476 321.968 221.28 321.874 221.076 321.889L199.89 323.459C199.826 323.45 199.761 323.459 199.703 323.485C199.645 323.512 199.595 323.554 199.56 323.608Z" fill="white"/>
<path d="M201.396 325.718L200.831 325.758C200.713 325.758 200.619 325.718 200.611 325.648L200.431 323.294C200.431 323.223 200.509 323.16 200.627 323.153H201.192C201.302 323.153 201.404 323.153 201.404 323.262L201.592 325.616C201.6 325.648 201.537 325.711 201.396 325.718Z" fill="#3485FF"/>
<g opacity="0.2">
<path d="M201.396 325.718L200.831 325.758C200.713 325.758 200.619 325.718 200.611 325.648L200.431 323.294C200.431 323.223 200.509 323.16 200.627 323.153H201.192C201.302 323.153 201.404 323.153 201.404 323.262L201.592 325.616C201.6 325.648 201.537 325.711 201.396 325.718Z" fill="#3485FF"/>
</g>
<path d="M218.306 324.471L217.733 324.518C217.623 324.518 217.529 324.471 217.521 324.408L217.333 322.054C217.333 321.983 217.419 321.921 217.529 321.913L218.102 321.874C218.212 321.874 218.314 321.913 218.314 321.976L218.502 324.33C218.502 324.4 218.416 324.463 218.306 324.471Z" fill="#3485FF"/>
<path opacity="0.2" d="M218.306 324.471L217.733 324.518C217.623 324.518 217.529 324.471 217.521 324.408L217.333 322.054C217.333 321.983 217.419 321.921 217.529 321.913L218.102 321.874C218.212 321.874 218.314 321.913 218.314 321.976L218.502 324.33C218.502 324.4 218.416 324.463 218.306 324.471Z" fill="#3485FF"/>
<path d="M209.847 325.099L209.282 325.138C209.172 325.138 209.07 325.099 209.07 325.028L208.882 322.674C208.882 322.603 208.968 322.54 209.078 322.533L209.643 322.493C209.761 322.493 209.855 322.533 209.863 322.603L210.043 324.957C210.051 325.028 209.965 325.091 209.847 325.099Z" fill="#3485FF"/>
<path opacity="0.2" d="M209.847 325.099L209.282 325.138C209.172 325.138 209.07 325.099 209.07 325.028L208.882 322.674C208.882 322.603 208.968 322.54 209.078 322.533L209.643 322.493C209.761 322.493 209.855 322.533 209.863 322.603L210.043 324.957C210.051 325.028 209.965 325.091 209.847 325.099Z" fill="#3485FF"/>
<g opacity="0.2">
<path d="M201.396 325.718L200.831 325.758C200.713 325.758 200.619 325.718 200.611 325.648L200.431 323.294C200.431 323.223 200.509 323.16 200.627 323.153H201.192C201.302 323.153 201.404 323.153 201.404 323.262L201.592 325.616C201.6 325.648 201.537 325.711 201.396 325.718Z" fill="white"/>
<g opacity="0.2">
<path d="M201.396 325.718L200.831 325.758C200.713 325.758 200.619 325.718 200.611 325.648L200.431 323.294C200.431 323.223 200.509 323.16 200.627 323.153H201.192C201.302 323.153 201.404 323.153 201.404 323.262L201.592 325.616C201.6 325.648 201.537 325.711 201.396 325.718Z" fill="white"/>
</g>
<path d="M218.306 324.471L217.733 324.518C217.623 324.518 217.529 324.471 217.521 324.408L217.333 322.054C217.333 321.983 217.419 321.921 217.529 321.913L218.102 321.874C218.212 321.874 218.314 321.913 218.314 321.976L218.502 324.33C218.502 324.4 218.416 324.463 218.306 324.471Z" fill="white"/>
<path opacity="0.2" d="M218.306 324.471L217.733 324.518C217.623 324.518 217.529 324.471 217.521 324.408L217.333 322.054C217.333 321.983 217.419 321.921 217.529 321.913L218.102 321.874C218.212 321.874 218.314 321.913 218.314 321.976L218.502 324.33C218.502 324.4 218.416 324.463 218.306 324.471Z" fill="white"/>
<path d="M209.847 325.099L209.282 325.138C209.172 325.138 209.07 325.099 209.07 325.028L208.882 322.674C208.882 322.603 208.968 322.541 209.078 322.533L209.643 322.494C209.761 322.494 209.855 322.533 209.863 322.603L210.043 324.957C210.051 325.028 209.965 325.091 209.847 325.099Z" fill="white"/>
<path opacity="0.2" d="M209.847 325.099L209.282 325.138C209.172 325.138 209.07 325.099 209.07 325.028L208.882 322.674C208.882 322.603 208.968 322.541 209.078 322.533L209.643 322.494C209.761 322.494 209.855 322.533 209.863 322.603L210.043 324.957C210.051 325.028 209.965 325.091 209.847 325.099Z" fill="white"/>
</g>
<path d="M193.494 268.123C190.238 270.014 184.973 275.397 190.638 281.541C196.304 287.685 207.799 281.211 205.822 273.639C203.844 266.067 198.148 265.423 193.494 268.123Z" fill="#263238"/>
<path d="M191.439 278.41C193.793 282.969 194.687 284.954 198.108 286.32C203.264 288.368 208.348 284.483 207.407 279.312C206.567 274.659 202.864 267.989 197.457 268.138C196.265 268.167 195.1 268.5 194.072 269.105C193.045 269.71 192.189 270.568 191.586 271.597C190.983 272.626 190.653 273.792 190.627 274.984C190.601 276.177 190.881 277.356 191.439 278.41Z" fill="#FFB573"/>
<path d="M192.349 273.521C194.444 274.424 194.899 279.501 193.133 281.541C189.485 281.549 186.103 270.822 192.349 273.521Z" fill="#263238"/>
<path d="M202.746 275.726C203.469 276.446 204.288 277.064 205.178 277.562C205.046 277.788 204.866 277.982 204.65 278.13C204.435 278.278 204.189 278.376 203.931 278.418L202.746 275.726Z" fill="#ED893E"/>
<path d="M192.058 283.252C192.754 283.961 193.702 284.367 194.695 284.381C196.005 284.381 196.319 283.126 195.66 282.027C195.001 280.929 193.683 279.924 192.521 280.458C192.263 280.57 192.038 280.746 191.865 280.968C191.691 281.19 191.577 281.451 191.531 281.729C191.485 282.007 191.509 282.291 191.601 282.557C191.693 282.823 191.85 283.062 192.058 283.252Z" fill="#FFB573"/>
<path d="M197.347 276.236C197.397 276.222 197.441 276.192 197.474 276.151C197.506 276.111 197.525 276.061 197.528 276.009C197.599 275.615 197.751 275.241 197.975 274.91C198.2 274.579 198.491 274.298 198.83 274.086C198.884 274.051 198.922 273.996 198.935 273.932C198.949 273.869 198.936 273.803 198.901 273.749C198.865 273.695 198.81 273.657 198.747 273.644C198.684 273.63 198.618 273.643 198.563 273.678C198.151 273.927 197.797 274.262 197.527 274.66C197.256 275.058 197.074 275.51 196.994 275.985C196.992 276.051 197.015 276.114 197.059 276.162C197.103 276.211 197.164 276.24 197.229 276.244L197.347 276.236Z" fill="#263238"/>
<path d="M204.198 271.897C204.238 271.884 204.275 271.862 204.305 271.832C204.335 271.802 204.357 271.765 204.37 271.724C204.387 271.661 204.379 271.593 204.346 271.536C204.314 271.479 204.261 271.437 204.198 271.418C203.826 271.305 203.433 271.283 203.05 271.352C202.668 271.422 202.308 271.582 202 271.819C201.976 271.84 201.956 271.865 201.942 271.894C201.928 271.923 201.919 271.954 201.917 271.986C201.915 272.018 201.919 272.051 201.929 272.081C201.94 272.111 201.956 272.14 201.977 272.164C201.998 272.188 202.024 272.208 202.052 272.222C202.081 272.236 202.113 272.245 202.145 272.247C202.177 272.249 202.209 272.245 202.239 272.235C202.27 272.225 202.298 272.208 202.322 272.187C202.568 272.003 202.854 271.879 203.157 271.827C203.46 271.775 203.771 271.797 204.064 271.889C204.107 271.903 204.153 271.906 204.198 271.897Z" fill="#263238"/>
<path d="M204.582 279.65C204.416 280.381 204.301 281.123 204.237 281.87H203.844C202.055 281.996 201.184 281.462 200.761 280.835C200.561 280.523 200.44 280.168 200.407 279.799C200.376 279.591 200.376 279.379 200.407 279.171C201.544 279.583 202.756 279.749 203.962 279.658C204.347 279.673 204.582 279.65 204.582 279.65Z" fill="#263238"/>
<path d="M203.97 279.689L203.852 280.34C202.173 280.45 200.965 280.301 200.407 279.83C200.376 279.622 200.376 279.411 200.407 279.203C201.547 279.616 202.761 279.782 203.97 279.689Z" fill="white"/>
<path d="M203.844 281.902C202.055 282.027 201.184 281.494 200.761 280.866C201.442 280.833 202.125 280.918 202.777 281.117C203.206 281.261 203.579 281.535 203.844 281.902Z" fill="#DE5753"/>
<path d="M200.305 275.726L200.823 275.295C200.823 275.295 200.698 276.025 200.219 276.001C199.961 275.94 199.69 275.98 199.461 276.113C199.232 276.246 199.062 276.461 198.987 276.715C198.964 275.444 199.968 275.624 200.305 275.726Z" fill="#263238"/>
<path d="M204.37 273.969L204.888 273.537C204.888 273.537 204.762 274.267 204.284 274.243C204.026 274.184 203.756 274.225 203.527 274.358C203.299 274.49 203.129 274.705 203.052 274.957C203.028 273.702 204.025 273.867 204.37 273.969Z" fill="#263238"/>
<path d="M193.957 277.217C193.957 277.217 195.605 273.969 194.146 271.12C194.983 272.015 195.496 273.164 195.605 274.385C196.258 273.549 197.018 272.802 197.865 272.164C197.681 271.089 197.295 270.058 196.727 269.127C197.188 269.461 197.574 269.886 197.861 270.376C198.149 270.866 198.332 271.411 198.399 271.976C198.467 270.961 198.22 269.95 197.692 269.08C198.555 269.652 199.194 270.502 199.505 271.489L201.255 270.838C201.255 270.838 200.863 269.221 200.046 268.782C200.828 269.216 201.536 269.772 202.142 270.43C202.142 270.43 203.782 270.312 204.158 270.799C203.817 270.04 203.305 269.371 202.662 268.843C202.02 268.315 201.264 267.942 200.455 267.754C201.882 267.872 203.255 268.355 204.441 269.159C204.441 269.159 202.236 265.51 196.225 267.063C190.214 268.617 188.982 272.917 188.912 274.722C188.841 276.527 193.957 277.217 193.957 277.217Z" fill="#263238"/>
<path d="M190.638 271.348C189.283 270.391 187.702 269.804 186.051 269.645C184.4 269.485 182.735 269.758 181.222 270.438C175.635 272.713 178.531 284.672 184.949 289.56C191.368 294.449 194.852 291.444 194.852 291.444C194.852 291.444 191.384 292.872 188.166 289.003C189.128 289.674 190.224 290.128 191.378 290.335C192.532 290.542 193.717 290.498 194.852 290.204L193.008 289.741L194.852 289.058C194.043 289.191 193.216 289.159 192.42 288.964C191.625 288.768 190.877 288.413 190.222 287.92C190.222 287.92 192.38 288.54 193.785 287.92C193.785 287.92 186.605 287.606 184.635 280.992C182.666 274.377 189.759 275.358 189.759 275.358L190.638 271.348Z" fill="#263238"/>
<path d="M216.172 256.792L213.88 253.174L219.114 253.661C219.114 253.661 220.448 256.698 219.114 258.369L218.612 258.306C218.119 258.25 217.644 258.085 217.222 257.823C216.8 257.561 216.441 257.209 216.172 256.792Z" fill="#FFB573"/>
<path d="M213.629 249.345L218.031 249.078L219.114 253.661L213.88 253.175L213.629 249.345Z" fill="#FFB573"/>
<path d="M222.528 318.57L199.23 325.075C197.904 320.163 196.258 315.342 194.303 310.645C193.212 307.953 192.16 305.568 191.297 303.583C191.297 303.504 191.235 303.426 191.195 303.347C189.626 299.636 188.684 297.266 189.343 296.693C190.913 295.336 196.453 293.303 196.453 293.303C196.453 293.303 203.279 297.289 207.281 295.602C209.957 294.472 208.066 290.894 208.066 290.894C211.095 288.454 212.413 288.611 213.896 290.329C214.728 291.389 215.414 292.556 215.936 293.798C219.122 300.86 221.665 313.846 222.355 317.573C222.402 317.817 222.441 318.029 222.465 318.186C222.465 318.272 222.465 318.342 222.465 318.397C222.465 318.452 222.528 318.57 222.528 318.57Z" fill="#263238"/>
<path opacity="0.7" d="M222.528 318.57L199.23 325.075C197.904 320.163 196.258 315.342 194.303 310.645C193.212 307.953 192.16 305.568 191.297 303.583C191.291 303.493 191.267 303.405 191.227 303.324L194.475 303.52L195.307 303.567C195.307 303.567 195.676 296.63 197.01 294.81C197.01 294.81 203.585 298.011 207.399 296.379C211.213 294.747 209.439 291.459 209.439 291.459C211.748 291.72 213.962 292.527 215.897 293.813H215.936C219.483 301.48 221.986 315.588 222.426 318.138C222.426 318.225 222.426 318.295 222.426 318.35C222.426 318.405 222.528 318.57 222.528 318.57Z" fill="white"/>
<path opacity="0.2" d="M194.303 310.645C193.212 307.953 192.16 305.568 191.297 303.582C191.297 303.504 191.235 303.426 191.195 303.347C192.125 302.813 193.194 302.57 194.263 302.649C194.263 302.649 194.358 302.978 194.467 303.551C194.951 305.897 194.895 308.323 194.303 310.645Z" fill="black"/>
<path d="M195.26 302.358C191.666 308.047 187.115 313.25 180.932 316.224C180.383 316.489 179.787 316.639 179.179 316.666C178.571 316.693 177.963 316.597 177.394 316.381C176.824 316.166 176.304 315.838 175.865 315.415C175.427 314.993 175.079 314.486 174.843 313.925C173.618 311.374 173.367 308.989 173.006 306.431C172.663 303.386 172.535 300.321 172.622 297.258L176.483 296.826C177.267 299.651 178.052 302.515 178.837 305.254C179.394 307.027 179.935 309.099 180.837 310.511C180.885 310.566 180.9 310.566 180.877 310.511C180.478 310.081 179.95 309.792 179.374 309.686C178.797 309.58 178.201 309.663 177.675 309.923C182.022 307.271 185.632 302.531 188.567 298.255L195.268 302.343L195.26 302.358Z" fill="#FFB573"/>
<path d="M189.806 296.458C187.735 297.195 184.11 302.853 184.11 302.853L190.685 310.425C190.685 310.425 195.566 305.921 195.338 303.065C195.111 300.208 192.16 295.595 189.806 296.458Z" fill="#263238"/>
<path d="M194.216 293.915C194.216 293.915 225.062 304.226 236.652 324.518L235.616 327.555C235.616 327.555 229.449 308.722 193.008 294.676L194.216 293.915Z" fill="#3485FF"/>
<path opacity="0.3" d="M194.216 293.915C194.216 293.915 225.062 304.226 236.652 324.518L235.616 327.555C235.616 327.555 229.449 308.722 193.008 294.676L194.216 293.915Z" fill="black"/>
<path d="M171.453 287.018L185.718 292.581L185.036 305.725L168.636 299.306L169.868 287.347L171.453 287.018Z" fill="#3485FF"/>
<path opacity="0.2" d="M171.453 287.018L185.718 292.581L185.036 305.725L168.636 299.306L169.868 287.347L171.453 287.018Z" fill="black"/>
<path d="M185.067 293.123L184.086 304.508L180.696 305.497L180.32 292.872L185.067 293.123Z" fill="#3485FF"/>
<path opacity="0.7" d="M185.067 293.123L184.086 304.508L180.696 305.497L180.32 292.872L185.067 293.123Z" fill="white"/>
<path d="M185.718 292.581L183.466 293.672L182.36 305.96L167.482 299.973L169.868 287.347L171.453 287.018L185.718 292.581Z" fill="#3485FF"/>
<path d="M179.841 308.393C179.48 307.404 179.135 306.337 178.821 305.254C178.036 302.515 177.251 299.651 176.467 296.826L172.606 297.258C172.519 300.321 172.647 303.386 172.991 306.431C173.171 308.016 173.451 309.589 173.83 311.139C174.057 312.092 174.392 313.016 174.827 313.893C174.989 314.214 175.181 314.518 175.4 314.804C175.751 315.282 176.187 315.691 176.686 316.012L176.953 316.169L177.291 316.334L177.644 316.467C177.783 316.514 177.924 316.553 178.068 316.585C178.66 316.714 179.272 316.714 179.864 316.585C180.133 316.524 180.396 316.44 180.649 316.334L180.932 316.2L181.238 316.059C181.528 315.918 181.803 315.769 182.077 315.627C182.069 315.651 180.602 307.781 179.841 308.393Z" fill="#FFB573"/>
<path d="M172.59 297.894L172.073 291.695L176.985 294.723C176.985 294.723 176.812 298.364 174.678 299.377L172.59 297.894Z" fill="#FFB573"/>
<path d="M174.419 287.544L178.397 290.306L176.985 294.723L172.073 291.702L174.419 287.544Z" fill="#FFB573"/>
<path d="M131.552 338.831C131.552 338.831 118.926 343.978 112.609 343.044C106.293 342.111 104.543 357.953 112.609 361.469C120.676 364.984 130.045 364.105 133.411 361.908C136.777 359.711 131.552 338.831 131.552 338.831Z" fill="#3485FF"/>
<path opacity="0.2" d="M131.552 338.831C131.552 338.831 118.926 343.978 112.609 343.044C106.293 342.111 104.543 357.953 112.609 361.469C120.676 364.984 130.045 364.105 133.411 361.908C136.777 359.711 131.552 338.831 131.552 338.831Z" fill="black"/>
<path d="M131.552 338.831C131.552 338.831 141.996 348.011 142.623 350.805C143.251 353.598 135.687 362.497 132.069 361.877C128.452 361.257 129.715 339.772 129.715 339.772L131.552 338.831Z" fill="#3485FF"/>
<path opacity="0.2" d="M131.552 338.831C131.552 338.831 141.996 348.011 142.623 350.805C143.251 353.598 135.687 362.497 132.069 361.877C128.452 361.257 129.715 339.772 129.715 339.772L131.552 338.831Z" fill="white"/>
<path d="M106.12 305.999C111.777 301.754 117.89 297.697 123.469 293.444C125.039 291.42 125.588 288.854 126.263 286.312C127.047 283.071 127.652 279.626 128.154 276.252L131.826 276.315C132.163 279.951 132.163 283.61 131.826 287.245C131.34 291.13 130.688 295.736 127.683 298.678C122.202 303.445 116.457 307.898 110.475 312.018L106.159 305.976L106.12 305.999Z" fill="#DC897C"/>
<path d="M109.729 316.318C114.579 316.514 124.827 304.399 124.827 304.399L118.016 297.721C114.174 299.74 110.608 302.245 107.407 305.175C102.667 309.797 104.339 316.075 109.729 316.318Z" fill="#263238"/>
<path opacity="0.2" d="M109.729 316.318C114.579 316.514 124.827 304.399 124.827 304.399L118.016 297.721C114.174 299.74 110.608 302.245 107.407 305.175C102.667 309.797 104.339 316.075 109.729 316.318Z" fill="white"/>
<path opacity="0.1" d="M110.334 316.294C108.843 314.662 108.945 312.3 111.903 309.052C114.843 306.039 118.241 303.51 121.971 301.558L124.874 304.399C124.874 304.399 115.371 315.682 110.334 316.294Z" fill="black"/>
<path d="M128.028 279.979L126.773 272.839L133.105 272.752C133.105 272.752 134.675 277.617 131.418 280.285L128.028 279.979Z" fill="#E4897B"/>
<path d="M128.366 267.958L133.105 269.017V272.776L126.773 272.862L128.366 267.958Z" fill="#E4897B"/>
<path d="M97.2609 456.808L90.6617 456.917C90.5543 456.919 90.4505 456.957 90.3678 457.026C90.285 457.094 90.2281 457.189 90.2066 457.294L89.2101 462.143C89.1873 462.247 89.1859 462.355 89.2059 462.459C89.2258 462.563 89.2668 462.662 89.3262 462.75C89.3856 462.838 89.4623 462.914 89.5516 462.971C89.6409 463.029 89.7409 463.067 89.8457 463.085C89.9056 463.093 89.9662 463.093 90.0261 463.085C92.1605 463.014 93.7063 462.865 96.3899 462.818C98.0378 462.818 103.02 462.889 105.304 462.818C107.587 462.748 107.838 460.527 106.873 460.339C102.675 459.491 99.5051 458.275 98.1476 457.098C97.8973 456.896 97.582 456.793 97.2609 456.808Z" fill="#263238"/>
<path d="M152.887 456.808L146.296 456.917C146.187 456.917 146.081 456.954 145.997 457.023C145.913 457.092 145.854 457.188 145.833 457.294L144.844 462.143C144.821 462.247 144.82 462.353 144.839 462.457C144.858 462.561 144.899 462.66 144.957 462.748C145.016 462.836 145.092 462.911 145.18 462.969C145.269 463.027 145.368 463.066 145.472 463.085C145.532 463.093 145.592 463.093 145.652 463.085C147.787 463.014 149.34 462.865 152.016 462.818C153.664 462.818 158.647 462.889 160.93 462.818C163.213 462.748 163.472 460.527 162.499 460.339C158.301 459.491 155.131 458.275 153.774 457.098C153.523 456.896 153.208 456.793 152.887 456.808Z" fill="#263238"/>
<path d="M89.1943 457.145H98.179C98.179 457.145 109.62 419.433 110.6 409.813C111.581 400.193 111.942 376.072 111.942 376.072V376.119C112.335 376.637 115.724 381.407 119.632 386.955C124.74 394.213 130.735 402.798 131.999 404.901C135.703 411.1 144.773 457.114 144.773 457.114H153.75C153.75 457.114 151.49 415.926 146.876 402.351C142.262 388.776 122.316 359.13 121.453 357.537C120.346 355.505 117.631 349.055 117.631 349.055L90.7088 352.798C90.7088 352.798 90.2693 357.357 90.3007 361.343C90.4263 376.299 93.2511 396.513 93.7063 401.95C94.593 412.316 89.1943 457.145 89.1943 457.145Z" fill="#3485FF"/>
<path d="M111.299 305.631C111.299 305.631 119.358 319.998 117.647 349.086L90.7323 352.829C89.9476 348.725 89.7671 328.206 83.0738 309.287C85.9707 308.314 88.9272 307.527 91.925 306.933C95.7048 306.188 99.5249 305.664 103.366 305.364C106.013 305.247 108.665 305.336 111.299 305.631Z" fill="#263238"/>
<path opacity="0.2" d="M117.671 349.086L90.748 352.829C90.2694 350.263 90.0104 341.255 88.2449 330.23C87.7741 327.288 87.1934 324.196 86.4637 321.057C85.5594 317.074 84.433 313.145 83.0895 309.287C85.9852 308.309 88.9419 307.523 91.9408 306.933C95.7232 306.188 99.5458 305.664 103.389 305.364C106.038 305.271 108.69 305.378 111.322 305.686C111.322 305.686 119.373 319.998 117.671 349.086Z" fill="white"/>
<path d="M90.3479 293.837C91.8623 297.313 94.0438 303.802 92.035 306.784C95.8407 307.498 98.5714 307.938 102.102 309.923C102.66 307.459 103.319 304.281 103.319 304.281C99.0579 304.21 98.4929 301.142 98.6106 298.207L90.3479 293.837Z" fill="#E4897B"/>
<path opacity="0.2" d="M93.7063 295.626L98.5713 298.215C98.5469 298.91 98.5784 299.605 98.6655 300.295C97.0961 300.412 94.5773 299.188 94.0515 297.603C93.814 296.971 93.6969 296.301 93.7063 295.626Z" fill="black"/>
<path opacity="0.5" d="M89.1943 457.145H98.179C98.179 457.145 109.62 419.433 110.6 409.813C111.581 400.193 111.942 376.072 111.942 376.072V376.119C112.335 376.637 115.724 381.407 119.632 386.955C124.74 394.213 130.735 402.798 131.999 404.901C135.703 411.1 144.773 457.114 144.773 457.114H153.75C153.75 457.114 151.49 415.926 146.876 402.351C142.262 388.776 122.316 359.13 121.453 357.537C120.346 355.505 117.631 349.055 117.631 349.055L90.7088 352.798C90.7088 352.798 90.2693 357.357 90.3007 361.343C90.4263 376.299 93.2511 396.513 93.7063 401.95C94.593 412.316 89.1943 457.145 89.1943 457.145Z" fill="white"/>
<path d="M88.5745 307.655L90.8108 304.862L98.0534 306.258L101.734 310.472L102.197 305.607L103.554 303.983L106.528 305.262V308.306L104.409 307.616L102.581 311.869L96.7979 309.491L95.5111 311.131L88.5745 307.655Z" fill="#263238"/>
<path opacity="0.3" d="M88.5745 307.655L90.8108 304.862L98.0534 306.258L101.734 310.472L102.197 305.607L103.554 303.983L106.528 305.262V308.306L104.409 307.616L102.581 311.869L96.7979 309.491L95.5111 311.131L88.5745 307.655Z" fill="white"/>
<path opacity="0.1" d="M102.581 311.869L103.279 306.784L106.528 308.306L104.409 307.616L102.581 311.869Z" fill="black"/>
<path opacity="0.1" d="M102.581 311.869L97.2216 307.922L95.511 311.131L96.7979 309.491L102.581 311.869Z" fill="black"/>
<path opacity="0.1" d="M88.2449 330.199C87.774 327.256 87.1934 324.165 86.4636 321.026C87.3323 319.949 88.5666 319.228 89.9319 319.002C89.9319 319.002 90.6695 326.158 88.2449 330.199Z" fill="black"/>
<path opacity="0.2" d="M111.942 376.087V376.134C112.335 376.652 115.725 381.423 119.632 386.971C120.019 383.968 119.508 380.918 118.165 378.205C116.822 375.492 114.706 373.237 112.084 371.724L111.942 376.087Z" fill="black"/>
<path d="M98.3203 279.234C101.02 279.924 103.648 286.704 100.737 288.783C97.8259 290.863 93.2512 277.939 98.3203 279.234Z" fill="#263238"/>
<path d="M88.2762 288.854C90.2223 293.562 91.1168 296.45 94.4203 298.184C95.4886 298.757 96.6933 299.028 97.9043 298.967C99.1153 298.906 100.286 298.514 101.291 297.836C102.296 297.157 103.097 296.217 103.606 295.117C104.115 294.016 104.315 292.798 104.182 291.593C103.75 286.939 100.651 279.979 95.2207 279.509C94.0488 279.373 92.8619 279.549 91.7792 280.017C90.6966 280.486 89.7563 281.231 89.0526 282.178C88.349 283.125 87.9069 284.24 87.7706 285.412C87.6343 286.584 87.8087 287.771 88.2762 288.854Z" fill="#E4897B"/>
<path d="M91.8701 281.996L90.7873 277.751C89.7973 278.461 88.608 278.84 87.3896 278.834C82.0851 278.59 78.8052 282.577 81.7006 284.978C79.4957 286.469 81.4338 289.505 83.4348 291.302C86.2047 293.797 88.8334 294.723 90.2301 293.099C91.5563 292.11 90.85 286.994 90.0104 285.197C88.7549 282.506 91.8701 281.996 91.8701 281.996Z" fill="#263238"/>
<path d="M88.0566 294.19C89.0217 295.012 90.2416 295.475 91.5092 295.5C93.0785 295.5 93.2041 293.986 92.1683 292.738C91.2345 291.616 89.2807 290.267 87.9624 290.879C86.6441 291.491 86.8325 293.162 88.0566 294.19Z" fill="#E4897B"/>
<path d="M96.1309 287.967C96.2643 288.36 96.5861 288.619 96.845 288.54C97.104 288.462 97.206 288.077 97.0726 287.685C96.9392 287.293 96.6174 287.041 96.3585 287.12C96.0996 287.198 95.9975 287.575 96.1309 287.967Z" fill="#263238"/>
<path d="M100.619 286.618C100.753 287.01 101.074 287.261 101.333 287.183C101.592 287.104 101.694 286.72 101.561 286.327C101.428 285.935 101.106 285.684 100.847 285.762C100.588 285.841 100.486 286.257 100.619 286.618Z" fill="#263238"/>
<path d="M99.2618 287.238C100.145 288.297 101.167 289.234 102.299 290.023C102.089 290.298 101.822 290.524 101.515 290.684C101.209 290.844 100.871 290.934 100.525 290.949L99.2618 287.238Z" fill="#DE5753"/>
<path d="M94.2555 286.955C94.2171 286.967 94.1762 286.967 94.1378 286.955C94.1072 286.944 94.0791 286.928 94.0549 286.906C94.0308 286.885 94.0112 286.859 93.9973 286.829C93.9835 286.8 93.9755 286.768 93.9741 286.736C93.9726 286.704 93.9776 286.672 93.9887 286.641C94.1066 286.278 94.3111 285.949 94.5845 285.682C94.8579 285.416 95.192 285.22 95.5581 285.111C95.5896 285.104 95.622 285.104 95.6537 285.109C95.6854 285.115 95.7156 285.127 95.7426 285.145C95.7696 285.162 95.7929 285.185 95.811 285.211C95.8292 285.238 95.8419 285.268 95.8484 285.299C95.8606 285.362 95.8487 285.426 95.8152 285.48C95.7818 285.534 95.7291 285.573 95.668 285.59C95.3794 285.677 95.1165 285.834 94.9018 286.046C94.6872 286.258 94.5273 286.518 94.436 286.806C94.4209 286.844 94.3964 286.878 94.3649 286.904C94.3333 286.93 94.2957 286.947 94.2555 286.955Z" fill="#263238"/>
<path d="M102.032 284.507C101.992 284.512 101.952 284.508 101.914 284.496C101.876 284.484 101.841 284.463 101.812 284.436C101.6 284.207 101.338 284.03 101.048 283.917C100.757 283.804 100.444 283.759 100.133 283.785C100.069 283.796 100.004 283.782 99.951 283.745C99.898 283.709 99.8618 283.652 99.8503 283.589C99.8412 283.524 99.8573 283.459 99.8954 283.406C99.9334 283.354 99.9904 283.318 100.054 283.306C100.442 283.264 100.834 283.313 101.199 283.449C101.564 283.585 101.892 283.805 102.157 284.091C102.18 284.114 102.198 284.14 102.211 284.17C102.223 284.2 102.229 284.232 102.229 284.264C102.229 284.296 102.223 284.327 102.211 284.357C102.198 284.387 102.18 284.414 102.157 284.436C102.124 284.473 102.08 284.498 102.032 284.507Z" fill="#263238"/>
<path d="M87.1855 279.438C87.1855 279.438 89.9084 272.07 96.7665 272.642C96.1324 272.864 95.5464 273.205 95.0402 273.647C95.0402 273.647 100.808 272.407 103.138 276.276L101.938 275.766C101.938 275.766 103.844 278.967 102.385 281.423L101.922 280.34C101.922 280.34 99.9053 283.597 96.2329 283.204L97.3864 282.42C97.3864 282.42 91.2267 283 89.5396 281.635C88.6748 280.993 87.8851 280.256 87.1855 279.438Z" fill="#263238"/>
<path d="M101.702 292.197C99.6106 292.039 97.5089 292.079 95.4247 292.315C96.076 293.664 97.1745 294.716 99.5364 294.504C99.8338 294.507 100.129 294.448 100.402 294.331C100.676 294.214 100.922 294.042 101.125 293.825C101.329 293.609 101.485 293.352 101.585 293.072C101.684 292.791 101.724 292.493 101.702 292.197Z" fill="#263238"/>
<path d="M98.3437 293.499C99.2477 293.374 100.168 293.539 100.972 293.97C100.557 294.292 100.053 294.478 99.5286 294.504C98.6271 294.633 97.7079 294.468 96.9078 294.033C97.3199 293.711 97.8215 293.525 98.3437 293.499Z" fill="#A02724"/>
<path d="M101.49 292.173C101.465 292.354 101.389 292.524 101.271 292.663C101.153 292.802 100.998 292.904 100.823 292.958C99.455 293.069 98.0799 293.069 96.7116 292.958C96.4927 292.956 96.2777 292.9 96.0859 292.795C95.8941 292.689 95.7316 292.538 95.613 292.354C97.5649 292.147 99.5295 292.087 101.49 292.173Z" fill="white"/>
<path d="M96.4919 330.984L90.034 323.514L85.4828 338.705C85.4828 338.705 87.9781 344.276 88.0722 344.002C88.1664 343.727 96.4919 330.984 96.4919 330.984Z" fill="#3485FF"/>
<path d="M95.6444 331.133L90.0339 324.863L86.8403 324.118L85.9222 337.198L89.618 339.772L95.6444 331.133Z" fill="#3485FF"/>
<path opacity="0.7" d="M95.6444 331.133L90.0339 324.863L86.8403 324.118L85.9222 337.198L89.618 339.772L95.6444 331.133Z" fill="white"/>
<path d="M86.7383 322.682L92.5057 330.066L96.4919 330.944L90.4184 351.111L84.6589 351.723L81.0179 343.342L86.7383 322.682Z" fill="#3485FF"/>
<path opacity="0.2" d="M86.7383 322.682L92.5057 330.066L96.4919 330.944L90.4184 351.111L84.6589 351.723L81.0179 343.342L86.7383 322.682Z" fill="white"/>
<path d="M92.286 331.274L85.2238 324.337L81.8811 339.843C81.8811 339.843 84.8158 345.194 84.8864 344.912C84.9571 344.629 92.286 331.274 92.286 331.274Z" fill="#3485FF"/>
<path opacity="0.4" d="M92.286 331.274L85.2238 324.337L81.8811 339.843C81.8811 339.843 84.8158 345.194 84.8864 344.912C84.9571 344.629 92.286 331.274 92.286 331.274Z" fill="black"/>
<path d="M91.462 331.533L85.3729 325.718L82.1321 325.232L82.242 338.344L86.134 340.62L91.462 331.533Z" fill="#3485FF"/>
<path opacity="0.7" d="M91.462 331.533L85.3729 325.718L82.1321 325.232L82.242 338.344L86.134 340.62L91.462 331.533Z" fill="white"/>
<path d="M81.9204 323.804L88.2528 330.717L92.286 331.274L87.829 351.864L82.1322 352.916L77.84 344.857L81.9204 323.804Z" fill="#3485FF"/>
<path opacity="0.2" d="M81.9204 323.804L88.2528 330.717L92.286 331.274L87.829 351.864L82.1322 352.916L77.84 344.857L81.9204 323.804Z" fill="black"/>
<path d="M86.903 316.075C82.4617 320.728 77.5339 325.35 73.9087 330.654C73.7596 330.897 73.6027 331.188 73.5399 331.305C73.5665 331.158 73.5665 331.006 73.5399 330.858C73.5399 330.709 73.43 330.686 73.4536 330.756C73.7439 331.478 75.0229 332.38 75.8076 332.922C78.4082 334.519 81.1287 335.912 83.9448 337.089L83.0503 340.612C79.6128 340.213 76.2511 339.32 73.0691 337.96C68.7376 336.139 65.1438 332.263 67.9765 327.358C69.9206 323.958 72.2366 320.784 74.8817 317.895C77.0867 315.392 79.3309 313.03 81.7555 310.715L86.9266 316.035L86.903 316.075Z" fill="#DC897C"/>
<path d="M86.8324 308.761C79.1504 307.192 69.8362 321.724 69.8362 321.724L77.5575 327.845C81.5186 325.341 85.2759 322.528 88.7941 319.433C93.6513 314.945 91.9407 309.797 86.8324 308.761Z" fill="#263238"/>
<path opacity="0.2" d="M86.8324 308.761C79.1504 307.192 69.8362 321.724 69.8362 321.724L77.5575 327.845C81.5186 325.341 85.2759 322.528 88.7941 319.433C93.6513 314.945 91.9407 309.797 86.8324 308.761Z" fill="white"/>
<path d="M81.9753 336.335L89.1865 335.551L88.8334 341.883C88.8334 341.883 83.8742 343.123 81.4338 339.67L81.9753 336.335Z" fill="#E4897B"/>
<path d="M93.9731 337.512L92.5764 342.165L88.8334 341.906L89.1865 335.574L93.9731 337.512Z" fill="#E4897B"/>
<path d="M105.578 304.759C105.578 304.759 121.492 319.763 129.904 340.251L131.52 338.83C131.52 338.83 121.5 317.487 108.333 304.43L105.578 304.759Z" fill="#3485FF"/>
<defs>
<filter id="filter0_i_74_497" x="224.36" y="-46.543" width="509.873" height="513.214" filterUnits="userSpaceOnUse" color-interpolation-filters="sRGB">
<feFlood flood-opacity="0" result="BackgroundImageFix"/>
<feBlend mode="normal" in="SourceGraphic" in2="BackgroundImageFix" result="shape"/>
<feColorMatrix in="SourceAlpha" type="matrix" values="0 0 0 0 0 0 0 0 0 0 0 0 0 0 0 0 0 0 127 0" result="hardAlpha"/>
<feOffset dy="4"/>
<feGaussianBlur stdDeviation="2"/>
<feComposite in2="hardAlpha" operator="arithmetic" k2="-1" k3="1"/>
<feColorMatrix type="matrix" values="0 0 0 0 0 0 0 0 0 0 0 0 0 0 0 0 0 0 0.25 0"/>
<feBlend mode="normal" in2="shape" result="effect1_innerShadow_74_497"/>
</filter>
</defs>
</svg>
