<svg width="670" height="670" viewBox="0 0 670 670" fill="none" xmlns="http://www.w3.org/2000/svg">
<path d="M334.661 168.231C348.531 168.231 360.319 163.486 370.028 153.997C379.736 144.508 384.591 132.507 384.591 117.995C384.591 104.04 379.736 92.1791 370.028 82.411C360.319 72.643 348.531 67.7589 334.661 67.7589C320.237 67.7589 308.31 72.643 298.878 82.411C289.447 92.1791 284.732 104.04 284.732 117.995C284.732 132.507 289.447 144.508 298.878 153.997C308.31 163.486 320.237 168.231 334.661 168.231ZM334.661 235.212C301.93 235.212 274.33 223.909 251.861 201.303C229.393 178.696 218.159 150.927 218.159 117.995C218.159 85.6205 229.393 57.9908 251.861 35.1056C274.33 12.2204 301.93 0.777771 334.661 0.777771C366.838 0.777771 394.299 12.2204 417.045 35.1056C439.791 57.9908 451.163 85.6205 451.163 117.995C451.163 150.927 439.791 178.696 417.045 201.303C394.299 223.909 366.838 235.212 334.661 235.212Z" fill="#E25557"/>
<path d="M200.496 380.366C200.496 397.111 209.372 416.648 227.125 438.975C244.878 461.302 280.383 496.746 333.641 545.307C385.79 497.862 421.018 462.976 439.326 440.649C457.633 418.322 466.787 398.228 466.787 380.366C466.787 367.528 462.626 356.644 454.304 347.713C445.983 338.782 435.72 334.317 423.515 334.317C415.748 334.317 408.397 335.991 401.462 339.34C394.528 342.689 388.841 347.434 384.403 353.574L344.459 401.298H321.991L282.048 353.574C277.609 347.434 271.923 342.689 264.988 339.34C258.054 335.991 250.98 334.317 243.768 334.317C231.008 334.317 220.606 338.782 212.562 347.713C204.518 356.644 200.496 367.528 200.496 380.366ZM133.923 380.366C133.923 350.783 143.909 324.549 163.881 301.663C183.853 278.778 210.482 267.336 243.768 267.336C260.966 267.336 277.471 271.243 293.282 279.057C309.093 286.872 322.546 297.477 333.641 310.873C344.737 297.477 358.051 286.872 373.585 279.057C389.119 271.243 405.762 267.336 423.515 267.336C456.801 267.336 483.43 278.918 503.402 302.082C523.374 325.246 533.36 351.341 533.36 380.366C533.36 409.95 522.68 439.114 501.321 467.86C479.963 496.606 436.274 541.4 370.256 602.241L333.641 635.732L297.026 602.241C229.899 540.842 185.933 495.909 165.129 467.442C144.325 438.975 133.923 409.95 133.923 380.366ZM336.138 669.222V602.241H599.932V367.807H501.738V300.826H599.932C618.24 300.826 633.912 307.385 646.949 320.502C659.986 333.619 666.505 349.387 666.505 367.807V669.222H336.138ZM67.3505 602.241H336.138V669.222H0.777832V367.807C0.777832 349.387 7.15772 333.619 19.9175 320.502C32.6773 307.385 48.4883 300.826 67.3505 300.826H165.545V367.807H67.3505V602.241Z" fill="#3485FF"/>
<path d="M569.363 203.088C578.794 203.088 586.699 199.879 593.079 193.46C599.459 187.041 602.649 179.087 602.649 169.598C602.649 160.109 599.459 152.155 593.079 145.736C586.699 139.317 578.794 136.107 569.363 136.107C559.931 136.107 552.026 139.317 545.646 145.736C539.266 152.155 536.076 160.109 536.076 169.598C536.076 179.087 539.266 187.041 545.646 193.46C552.026 199.879 559.931 203.088 569.363 203.088ZM569.363 270.069C541.069 270.069 517.353 260.441 498.213 241.184C479.073 221.927 469.503 198.065 469.503 169.598C469.503 141.689 479.073 117.966 498.213 98.4301C517.353 78.8939 541.069 69.1259 569.363 69.1259C597.101 69.1259 620.679 78.8939 640.096 98.4301C659.513 117.966 669.222 141.689 669.222 169.598C669.222 198.065 659.513 221.927 640.096 241.184C620.679 260.441 597.101 270.069 569.363 270.069Z" fill="#DA8600"/>
<path d="M100.943 223.039C110.403 223.039 118.333 219.839 124.732 213.44C131.131 207.04 134.331 199.111 134.331 189.651C134.331 180.191 131.131 172.261 124.732 165.861C118.333 159.462 110.403 156.262 100.943 156.262C91.4827 156.262 83.553 159.462 77.1536 165.861C70.7542 172.261 67.5545 180.191 67.5545 189.651C67.5545 199.111 70.7542 207.04 77.1536 213.44C83.553 219.839 91.4827 223.039 100.943 223.039ZM100.943 289.816C72.5627 289.816 48.7735 280.216 29.5752 261.018C10.377 241.82 0.777832 218.031 0.777832 189.651C0.777832 161.827 10.377 138.177 29.5752 118.7C48.7735 99.2239 72.5627 89.4857 100.943 89.4857C128.766 89.4857 152.416 99.2239 171.893 118.7C191.369 138.177 201.108 161.827 201.108 189.651C201.108 218.031 191.369 241.82 171.893 261.018C152.416 280.216 128.766 289.816 100.943 289.816Z" fill="#DFC857"/>
</svg>
